<svg xmlns="http://www.w3.org/2000/svg" viewBox="0 0 45.19 45"><defs><style>.cls-1{fill:#f8f8f8;stroke:#212121;stroke-width:1.5px;stroke-linejoin:round;fill-rule:evenodd}</style></defs><g id="bishop-white"><path class="cls-1" d="M9.09 36.34c3.4-1 10.1.4 13.5-2 3.4 2.4 10.1 1 13.5 2a7.06 7.06 0 0 1 3 2c-.7 1-1.7 1-3 .5-3.4-1-10.1.5-13.5-1-3.4 1.5-10.1 0-13.5 1-1.4.5-2.3.5-3-.5a4.47 4.47 0 0 1 3-2z"/><path class="cls-1" d="M15.09 32.34c2.5 2.5 12.5 2.5 15 0 .5-1.5 0-2 0-2 0-2.5-2.5-4-2.5-4 5.5-1.5 6-11.5-5-15.5-11 4-10.5 14-5 15.5 0 0-2.5 1.5-2.5 4 0 0-.5.5 0 2z"/><path class="cls-1" d="M25.09 8.34a2.5 2.5 0 1 1-2.5-2.5 2.48 2.48 0 0 1 2.5 2.5z"/><path d="M17.59 26.34h10m-12.5 4h15m-7.5-14.5v5m-2.5-2.5h5" style="stroke-linecap:round;fill:#f8f8f8;stroke:#212121;stroke-width:1.5px"/></g></svg>