<svg version="1.1" id="Layer_1" xmlns="http://www.w3.org/2000/svg" x="0" y="0" viewBox="0 0 45.2 45" style="enable-background:new 0 0 45.2 45" xml:space="preserve"><style>.st0{fill-rule:evenodd;clip-rule:evenodd;fill:#565352;stroke:#212121;stroke-width:1.5;stroke-linejoin:round}</style><g id="bishop-black"><path class="st0" d="M9.1 36.3c3.4-1 10.1.4 13.5-2 3.4 2.4 10.1 1 13.5 2 1.2.4 2.2 1.1 3 2-.7 1-1.7 1-3 .5-3.4-1-10.1.5-13.5-1-3.4 1.5-10.1 0-13.5 1-1.4.5-2.3.5-3-.5.7-1 1.8-1.7 3-2z"/><path class="st0" d="M15.1 32.3c2.5 2.5 12.5 2.5 15 0 .5-1.5 0-2 0-2 0-2.5-2.5-4-2.5-4 5.5-1.5 6-11.5-5-15.5-11 4-10.5 14-5 15.5 0 0-2.5 1.5-2.5 4 0 0-.5.5 0 2z"/><path class="st0" d="M25.1 8.3c0 1.4-1.1 2.5-2.5 2.5s-2.5-1.1-2.5-2.5 1.1-2.5 2.5-2.5 2.5 1.1 2.5 2.5z"/><path d="M17.6 26.3h10m-12.5 4h15m-7.5-14.5v5m-2.5-2.5h5" style="fill:#565352;stroke:#212121;stroke-width:1.5;stroke-linecap:round"/></g></svg>