<svg xmlns="http://www.w3.org/2000/svg" viewBox="0 0 45.19 45"><defs><style>.cls-1{fill:#565352;stroke:#212121;stroke-linecap:round;stroke-linejoin:round;stroke-width:1.5px;fill-rule:evenodd}</style></defs><g id="knight-black"><path class="cls-1" d="M22.58 9.5c10.5 1 16.5 8 16 29h-23c0-9 10-6.5 8-21"/><path class="cls-1" d="M24.58 17.5c.4 2.9-5.5 7.4-8 9-3 2-2.8 4.3-5 4-1-.9 1.4-3 0-3-1 0 .2 1.2-1 2-1 0-4 1-4-4 0-2 6-12 6-12s1.9-1.9 2-3.5a4.59 4.59 0 0 1-.5-3c1-1 3 2.5 3 2.5h2a6.82 6.82 0 0 1 2.5-3c1 0 1 3 1 3"/><path class="cls-1" d="M10.08 25a.5.5 0 1 1-.5-.5.47.47 0 0 1 .5.5zM15.48 15.2c-.4.7-.9 1.2-1.2 1s-.1-.8.3-1.5.9-1.2 1.2-1 .1.8-.3 1.5z"/></g></svg>