<svg xmlns="http://www.w3.org/2000/svg" viewBox="0 0 45.19 45"><defs><style>.cls-1,.cls-2,.cls-3{fill:#f8f8f8;stroke:#212121;stroke-linejoin:round;stroke-width:1.5px}.cls-1,.cls-3{stroke-linecap:round}.cls-1,.cls-2{fill-rule:evenodd}</style></defs><g id="queen-white"><path class="cls-1" d="M8.09 12.13a2 2 0 1 1-2-2 2 2 0 0 1 2 2zM24.59 7.63a2 2 0 1 1-2-2 2 2 0 0 1 2 2zM41.09 12.13a2 2 0 1 1-2-2 2 2 0 0 1 2 2zM16.09 8.63a2 2 0 1 1-2-2 2 2 0 0 1 2 2zM33.09 9.13a2 2 0 1 1-2-2 2 2 0 0 1 2 2z"/><path class="cls-2" d="M9.09 26.13c8.5-1.5 21-1.5 27 0l2-12-7 11v-14l-5.5 13.5-3-15-3 15-5.5-14v14.5l-7-11z"/><path class="cls-2" d="M9.09 26.13c0 2 1.5 2 2.5 4 1 1.5 1 1 .5 3.5a3.23 3.23 0 0 0-1.5 2.5c-1.5 1.5.5 2.5.5 2.5a88.54 88.54 0 0 0 23 0s1.5-1 0-2.5a2.22 2.22 0 0 0-1-2.5c-.5-2.5-.5-2 .5-3.5 1-2 2.5-2 2.5-4a81.56 81.56 0 0 0-27 0z"/><path class="cls-3" d="M11.59 30.13c3.5-1 18.5-1 22 0M12.09 33.63a73.88 73.88 0 0 1 21 0"/></g></svg>